<?xml version="1.0" standalone="no"?>
<!DOCTYPE svg PUBLIC "-//W3C//DTD SVG 20010904//EN"
 "http://www.w3.org/TR/2001/REC-SVG-20010904/DTD/svg10.dtd">
<svg version="1.0" xmlns="http://www.w3.org/2000/svg"
 width="500.000000pt" height="500.000000pt" viewBox="0 0 500.000000 500.000000"
 preserveAspectRatio="xMidYMid meet">

<g transform="translate(0.000000,500.000000) scale(0.100000,-0.100000)"
fill="#000000" stroke="none">
<path d="M1270 3981 c-15 -30 -14 -31 46 -31 52 0 55 -1 52 -22 -3 -21 -9 -23
-65 -26 l-62 -3 -37 -112 c-20 -62 -39 -118 -42 -124 -2 -8 4 -13 17 -13 26 0
26 -2 0 -77 -17 -52 -24 -62 -46 -65 -24 -3 -30 -15 -69 -125 l-43 -123 25 0
c22 0 24 -3 18 -22 -18 -60 -24 -68 -47 -68 -22 0 -29 -12 -64 -112 -36 -101
-43 -113 -66 -116 -20 -3 -29 -12 -41 -48 l-15 -44 25 0 c13 0 24 -1 24 -3 0
-2 -16 -48 -35 -103 -19 -54 -35 -102 -35 -106 0 -5 10 -8 21 -8 17 0 20 -4
15 -22 -3 -13 -6 -42 -6 -65 0 -39 -2 -43 -25 -43 -23 0 -25 -4 -25 -45 l0
-45 320 0 c277 0 320 -2 321 -15 0 -8 1 -31 1 -50 0 -52 0 -52 -22 -58 -17 -4
-20 -14 -20 -56 0 -44 3 -53 22 -60 19 -7 22 -14 19 -49 -5 -83 -7 -82 145
-82 l134 0 0 64 c0 55 -3 64 -20 69 -17 4 -20 14 -20 57 0 43 3 53 20 57 16 4
20 15 22 62 l3 56 73 3 72 3 0 44 c0 41 2 45 25 45 24 0 25 2 25 65 0 63 -1
65 -25 65 -16 0 -25 6 -25 15 0 12 -15 15 -75 15 l-75 0 0 95 c0 95 0 95 -25
95 -23 0 -25 4 -25 45 0 41 2 45 25 45 24 0 24 0 27 113 3 108 4 112 26 115
19 3 22 10 22 43 l0 40 -137 -3 -138 -3 -3 -37 c-2 -29 -8 -37 -25 -40 -21 -3
-22 -7 -22 -116 l0 -112 -27 0 c-26 0 -28 -3 -28 -44 0 -40 3 -45 25 -48 14
-2 25 -6 25 -10 0 -5 0 -46 0 -93 l0 -85 -155 0 c-85 0 -155 2 -155 4 0 3 14
41 30 86 36 96 36 100 10 100 -23 0 -24 1 -8 51 9 32 16 39 37 39 24 0 29 8
66 115 37 107 41 115 66 115 21 0 28 7 37 39 16 50 15 51 -8 51 -11 0 -20 4
-20 9 0 4 18 59 40 121 22 62 40 114 40 116 0 1 12 4 27 6 23 3 29 12 49 71
l23 67 -25 0 c-17 0 -24 4 -21 13 3 6 23 63 43 125 l38 112 63 0 c35 0 63 4
63 9 0 5 3 16 6 25 5 13 -3 16 -51 16 -56 0 -57 1 -53 25 l5 25 -148 0 c-136
0 -149 -2 -159 -19z"/>
<path d="M2124 3986 c-56 -25 -50 -36 15 -36 65 0 67 -1 51 -31 -9 -16 -22
-19 -79 -19 l-68 0 -7 -31 c-3 -17 -6 -74 -6 -125 l0 -94 60 0 60 0 0 -70 0
-70 -60 0 -60 0 0 -125 c0 -77 4 -125 10 -125 6 0 10 -20 10 -45 0 -25 -4 -45
-10 -45 -6 0 -10 -45 -10 -115 l0 -115 60 0 60 0 0 -45 0 -45 -60 0 -60 0 0
-110 c0 -103 1 -110 20 -110 18 0 20 -7 20 -65 0 -58 -2 -65 -20 -65 -19 0
-20 -7 -20 -105 0 -98 1 -105 20 -105 18 0 20 -7 20 -60 0 -48 -3 -60 -16 -60
-13 0 -15 -6 -9 -27 9 -39 53 -81 95 -94 22 -7 165 -9 396 -7 l361 3 36 28
c19 15 41 43 48 62 8 21 20 35 30 35 11 0 18 12 23 38 10 60 7 72 -15 80 -20
8 -21 15 -21 110 1 95 0 102 -18 102 -17 0 -20 7 -20 55 0 30 0 58 0 63 -1 4
8 8 20 10 19 3 20 10 20 113 0 102 1 109 20 109 17 0 20 7 20 45 0 40 -2 45
-23 45 -22 0 -22 1 -19 113 3 61 7 114 11 117 9 7 7 72 -3 88 -4 8 -8 65 -7
128 2 109 1 115 -20 122 -19 7 -21 16 -21 73 0 59 1 64 22 67 23 4 23 4 17
128 l-6 124 65 0 c68 0 70 1 54 31 -9 16 -22 19 -81 19 -57 0 -75 4 -100 23
-30 22 -34 22 -402 24 -298 2 -378 0 -403 -11z m586 -286 c0 -43 -3 -50 -20
-50 -18 0 -20 -7 -20 -70 0 -63 2 -70 20 -70 19 0 20 -7 20 -125 0 -77 4 -125
10 -125 6 0 10 -20 10 -45 0 -25 -4 -45 -10 -45 -6 0 -10 -45 -10 -115 l0
-115 25 0 c23 0 25 -4 25 -45 0 -41 -2 -45 -25 -45 l-25 0 0 -110 c0 -103 -1
-110 -20 -110 -18 0 -20 -7 -20 -65 0 -58 2 -65 20 -65 19 0 20 -7 20 -105 l0
-105 -195 0 -195 0 0 105 c0 98 1 105 20 105 18 0 20 7 20 65 0 58 -2 65 -20
65 -19 0 -20 7 -20 110 l0 110 60 0 60 0 0 45 0 45 -60 0 -60 0 0 115 c0 70 4
115 10 115 6 0 10 20 10 45 0 25 -4 45 -10 45 -6 0 -10 48 -10 125 l0 125 60
0 60 0 0 70 0 70 -60 0 -60 0 0 50 0 50 195 0 195 0 0 -50z"/>
<path d="M3636 3984 c-10 -26 -7 -34 14 -34 37 0 20 -46 -19 -51 -21 -4 -29
-19 -66 -124 l-42 -120 -66 -3 -65 -3 -21 -61 c-12 -34 -21 -66 -21 -70 0 -4
27 -8 60 -8 33 0 60 -3 60 -7 0 -5 -18 -59 -40 -121 -22 -63 -38 -118 -34
-123 9 -15 -6 -68 -26 -87 -13 -13 -90 -206 -90 -228 0 -2 9 -4 20 -4 23 0 25
-13 9 -58 -8 -22 -18 -32 -36 -34 -24 -3 -30 -14 -63 -108 -37 -103 -38 -105
-71 -108 -42 -4 -49 -15 -49 -79 0 -51 0 -52 33 -55 30 -3 32 -6 35 -45 l3
-43 320 0 319 0 0 -185 0 -185 140 0 140 0 0 185 0 185 75 0 75 0 0 45 c0 45
0 45 -35 45 l-35 0 0 65 0 65 35 0 c24 0 35 5 35 15 0 12 -15 15 -75 15 l-75
0 0 95 c0 95 0 95 25 95 23 0 25 4 25 45 0 41 -2 45 -25 45 l-25 0 0 155 0
155 -140 0 -140 0 0 -155 0 -155 25 0 c23 0 25 -4 25 -45 0 -41 -2 -45 -25
-45 -25 0 -25 0 -25 -95 l0 -95 -155 0 c-85 0 -155 4 -155 8 0 8 40 128 55
165 4 9 18 17 31 17 24 0 30 8 48 68 6 19 4 22 -18 22 l-25 0 36 106 c19 58
43 113 53 122 22 21 44 86 31 90 -5 2 8 56 30 120 21 64 39 120 39 124 0 4
-27 8 -61 8 -45 0 -60 3 -56 13 2 6 13 38 23 70 l18 57 65 0 66 0 23 68 c62
178 63 181 90 184 15 2 28 12 33 26 7 19 5 22 -17 22 -21 0 -24 3 -18 25 l6
25 -150 0 c-127 0 -151 -2 -156 -16z"/>
<path d="M939 3593 c-5 -16 -12 -34 -14 -40 -3 -10 18 -13 84 -13 84 0 88 1
99 25 24 52 19 55 -73 55 -84 0 -86 0 -96 -27z"/>
<path d="M3749 3593 c-5 -16 -12 -34 -14 -40 -3 -10 17 -13 81 -13 82 0 85 1
94 26 20 51 16 54 -70 54 -79 0 -81 -1 -91 -27z"/>
<path d="M1992 3578 l3 -33 65 0 65 0 3 33 3 32 -71 0 -71 0 3 -32z"/>
<path d="M1814 3236 c-3 -8 -4 -23 -2 -33 3 -16 16 -18 116 -21 l112 -3 0 36
0 35 -110 0 c-87 0 -112 -3 -116 -14z"/>
<path d="M1870 2895 l0 -35 111 0 110 0 -3 33 -3 32 -107 3 -108 3 0 -36z"/>
<path d="M787 1703 c-12 -11 -8 -108 4 -120 18 -18 19 -93 3 -100 -10 -4 -14
-25 -14 -78 0 -56 -4 -74 -15 -79 -10 -3 -15 -19 -15 -46 0 -27 5 -43 15 -46
12 -5 15 -28 15 -120 l0 -114 55 0 55 0 0 115 c0 96 -3 115 -15 115 -11 0 -15
12 -15 50 0 37 4 50 14 50 10 0 16 13 18 38 3 37 3 36 30 -33 14 -38 29 -78
33 -87 5 -13 2 -18 -8 -18 -22 0 -9 -40 16 -49 14 -5 31 -35 52 -92 l32 -84
47 -3 46 -3 0 90 c0 74 -3 91 -15 91 -9 0 -15 9 -15 25 0 16 6 25 15 25 13 0
15 21 15 125 0 77 4 125 10 125 6 0 10 22 10 49 0 28 -4 53 -10 56 -5 3 -10
33 -10 66 l0 60 -47 -3 -48 -3 -3 -62 c-2 -39 1 -63 8 -63 13 0 13 -83 0 -96
-5 -5 -10 -50 -12 -99 l-3 -89 -33 87 c-18 48 -30 92 -27 97 9 14 -24 97 -40
104 -7 2 -21 26 -31 53 -9 26 -22 54 -27 61 -10 13 -79 17 -90 5z"/>
<path d="M1260 1697 c-24 -12 -25 -17 -28 -115 -2 -65 1 -102 8 -102 5 0 10
-7 10 -15 0 -8 -4 -15 -10 -15 -6 0 -10 -43 -10 -110 0 -91 -3 -110 -15 -110
-9 0 -15 -9 -15 -25 0 -16 6 -25 15 -25 12 0 15 -15 15 -74 0 -106 0 -106 171
-106 78 0 149 5 160 10 16 9 19 22 19 81 0 45 5 78 15 93 13 20 13 25 0 42
-18 24 -20 133 -2 139 16 7 15 77 -1 83 -8 2 -12 37 -12 117 0 92 -3 115 -17
126 -23 20 -268 25 -303 6z m220 -182 c0 -37 4 -65 10 -65 6 0 10 -18 10 -40
0 -22 -4 -40 -10 -40 -6 0 -10 -30 -10 -70 0 -40 4 -70 10 -70 6 0 10 -11 10
-25 0 -14 -4 -25 -10 -25 -5 0 -10 -20 -10 -45 l0 -45 -75 0 -75 0 0 45 c0 33
-4 45 -15 45 -9 0 -15 9 -15 25 0 16 6 25 15 25 12 0 15 18 15 103 0 68 4 107
12 115 10 10 10 17 0 32 -6 11 -12 38 -12 60 l0 40 75 0 75 0 0 -65z"/>
<path d="M1640 1660 l0 -50 55 0 c40 0 55 -4 55 -14 0 -8 -7 -16 -15 -20 -23
-8 -20 -83 3 -95 16 -9 18 -22 16 -125 -1 -64 2 -118 7 -122 12 -7 12 -51 -1
-59 -6 -4 -9 -42 -8 -91 l2 -84 53 0 53 0 0 90 c0 53 4 90 10 90 6 0 10 11 10
25 0 14 -4 25 -10 25 -6 0 -10 48 -10 124 0 101 -3 125 -15 130 -10 4 -15 20
-15 51 0 33 4 45 15 45 8 0 15 7 15 15 0 10 15 15 58 17 l57 3 0 45 0 45 -167
3 -168 2 0 -50z"/>
<path d="M2197 1704 c-14 -14 -7 -64 8 -64 12 0 15 -17 15 -95 0 -57 4 -95 10
-95 6 0 10 -18 10 -40 0 -22 -4 -40 -10 -40 -6 0 -10 -68 -10 -185 l0 -185 55
0 55 0 0 155 0 155 75 0 c73 0 75 1 75 24 0 14 5 28 10 31 6 3 10 13 10 21 0
11 -16 14 -75 14 -68 0 -75 2 -75 19 0 11 -4 23 -10 26 -5 3 -10 42 -10 86 l0
79 90 0 c73 0 90 3 90 15 0 8 -6 15 -14 15 -9 0 -16 12 -18 33 l-3 32 -136 3
c-74 1 -138 -1 -142 -4z"/>
<path d="M2610 1703 c-35 -13 -40 -35 -40 -185 0 -125 -2 -148 -15 -148 -8 0
-15 -9 -15 -20 0 -11 7 -20 15 -20 12 0 15 -15 15 -75 0 -43 4 -75 10 -75 15
0 13 -127 -2 -133 -9 -3 -8 -10 6 -26 18 -20 28 -21 165 -21 l147 0 27 31 c23
26 27 40 27 90 0 33 -4 59 -10 59 -6 0 -10 57 -10 150 0 127 -2 150 -15 150
-22 0 -21 95 1 104 13 5 15 15 11 49 -9 69 -28 77 -176 76 -69 0 -133 -3 -141
-6z m180 -173 c0 -38 4 -50 15 -50 13 0 15 -23 15 -150 0 -93 4 -150 10 -150
6 0 10 -20 10 -45 l0 -45 -70 0 -70 0 0 39 c0 22 -4 43 -10 46 -5 3 -10 37
-10 75 0 59 -3 71 -20 80 -11 6 -20 15 -20 21 0 6 9 13 20 16 18 5 20 14 20
109 l0 104 55 0 55 0 0 -50z"/>
<path d="M3017 1704 c-11 -11 -8 -124 3 -124 6 0 10 -20 10 -44 0 -25 -4 -48
-10 -51 -6 -4 -10 -58 -10 -131 0 -104 -2 -124 -15 -124 -9 0 -15 -9 -15 -25
0 -16 6 -25 15 -25 12 0 15 -15 15 -73 0 -106 2 -107 174 -107 76 0 146 5 157
10 18 10 19 23 19 165 0 97 -4 155 -10 155 -5 0 -10 9 -10 20 0 11 5 20 10 20
6 0 10 63 10 170 l0 170 -50 0 -50 0 0 -170 c0 -144 -2 -170 -15 -170 -8 0
-15 -9 -15 -20 0 -11 7 -20 15 -20 13 0 15 -20 15 -120 l0 -120 -70 0 -70 0 0
45 c0 33 -4 45 -15 45 -9 0 -15 9 -15 25 0 16 6 25 15 25 13 0 15 20 15 124 0
73 4 127 10 131 13 8 13 95 0 95 -5 0 -10 28 -12 63 l-3 62 -45 3 c-25 2 -49
0 -53 -4z"/>
<path d="M3450 1646 c0 -52 -3 -66 -15 -66 -11 0 -15 -12 -15 -50 0 -38 4 -50
15 -50 13 0 15 -31 15 -215 0 -184 -2 -215 -15 -215 -9 0 -15 -9 -15 -25 0
-23 3 -25 50 -25 44 0 50 3 50 20 0 11 7 23 15 26 13 5 15 36 16 188 l1 181
19 -42 c11 -24 24 -43 30 -43 23 0 49 -138 28 -151 -16 -9 32 -129 52 -129 10
0 20 -11 23 -25 6 -22 11 -25 56 -25 47 0 50 2 50 25 0 16 -6 25 -15 25 -12 0
-15 14 -15 65 0 51 3 65 15 65 9 0 15 9 15 25 0 14 5 25 10 25 6 0 10 23 10
50 0 28 -4 50 -10 50 -6 0 -11 74 -12 188 l-3 187 -46 3 c-59 4 -58 7 -56
-204 0 -94 -3 -165 -9 -165 -5 -1 -21 29 -35 67 -15 39 -33 70 -44 74 -23 8
-59 100 -39 100 18 0 18 -4 -10 66 -24 59 -24 59 -70 62 l-46 4 0 -66z"/>
<path d="M3898 1704 c-13 -13 -9 -202 5 -225 10 -17 10 -23 0 -26 -10 -3 -13
-41 -13 -139 0 -112 -2 -134 -15 -134 -12 0 -15 -14 -15 -65 0 -51 3 -65 15
-65 9 0 15 -9 15 -25 l0 -25 133 0 c145 1 181 11 183 52 4 61 19 124 32 134
11 8 13 47 10 220 -3 180 -6 214 -21 237 -34 53 -60 61 -196 65 -69 2 -129 1
-133 -4z m242 -324 c0 -171 -2 -200 -15 -200 -10 0 -15 -10 -15 -27 0 -44 -26
-63 -87 -63 l-53 0 0 45 c0 33 4 45 15 45 13 0 15 22 15 134 0 98 3 136 13
139 10 3 10 9 0 26 -7 11 -13 39 -13 61 l0 40 70 0 70 0 0 -200z"/>
</g>
</svg>
